# xmcd
#
# Track frame offsets:
#	150
#	11409
#	27107
#	39195
#	49230
#	60807
#	73109
#	84805
#	96462
#	112516
#
# Disc length: 1803 seconds
#
# Revision: 1
# Processed by: cddbd v1.5.2PL0 Copyright (c) Steve Scherf et al.
# Submitted via: audiograbber 1.83.01
#
DISCID=6707090a
DTITLE=Various Artist - Country Roads - 70's Hits
DYEAR=2007
DGENRE=Country
TTITLE0=Conway Twitty - Hello Darlin'
TTITLE1=Ray Price - I Won't Mention It Again
TTITLE2=Johnny Paycheck - Take This Job and Shove It
TTITLE3=Johnny Rodriguez - Ridin' My Thumb to Mexico
TTITLE4=Sammi Smith - Help Me Make It Through the Night
TTITLE5=Jeanne Pruett - Satin Sheets
TTITLE6=Donna Fargo - The Happiest Girl in the Whole USA
TTITLE7=Merle Haggard - Carolyn
TTITLE8=Exile - Kiss You All Over
TTITLE9=Eddie Rabbitt - Suspicions
EXTD=
EXTT0=
EXTT1=
EXTT2=
EXTT3=
EXTT4=
EXTT5=
EXTT6=
EXTT7=
EXTT8=
EXTT9=
PLAYORDER=
